 http://www.shotpix.com/images/42147306907644841868.jpg

 
http://www.imdb.com/title/tt2170584/



Sources: Video Game High School 2012 1080p BluRay FLAC 2 0 x264-DON - Thx


Format                                   : AVI
Format/Info                              : Audio Video Interleave
File size                                : 1.48 GiB
Duration                                 : 2h 4mn
Overall bit rate                         : 1 713 Kbps
Writing application                      : VirtualDubMod 1.5.10.2 (build 2540/release)
Writing library                          : VirtualDubMod build 2540/release

Video
ID                                       : 0
Format                                   : MPEG-4 Visual
Format profile                           : Advanced Simple@L5
Format settings, BVOP                    : 2
Format settings, QPel                    : No
Format settings, GMC                     : No warppoints
Format settings, Matrix                  : Default (H.263)
Muxing mode                              : Packed bitstream
Codec ID                                 : XVID
Codec ID/Hint                            : XviD
Duration                                 : 2h 4mn
Bit rate                                 : 1 319 Kbps
Width                                    : 720 pixels
Height                                   : 400 pixels
Display aspect ratio                     : 16:9
Frame rate                               : 23.976 fps
Color space                              : YUV
Chroma subsampling                       : 4:2:0
Bit depth                                : 8 bits
Scan type                                : Progressive
Compression mode                         : Lossy
Bits/(Pixel*Frame)                       : 0.191
Stream size                              : 1.14 GiB (77%)
Writing library                          : XviD 64

Audio
ID                                       : 1
Format                                   : AC-3
Format/Info                              : Audio Coding 3
Mode extension                           : CM (complete main)
Format settings, Endianness              : Big
Codec ID                                 : 2000
Duration                                 : 2h 4mn
Bit rate mode                            : Constant
Bit rate                                 : 384 Kbps
Channel(s)                               : 2 channels
Channel positions                        : Front: L R
Sampling rate                            : 48.0 KHz
Bit depth                                : 16 bits
Compression mode                         : Lossy
Stream size                              : 341 MiB (22%)
Alignment                                : Split accross interleaves
Interleave, duration                     : 42 ms (1.00 video frame)
Interleave, preload duration             : 500 ms


Directors: 
Matthew Arnold, Brandon Laatsch 

Stars:
 Josh Blaylock, Johanna Braddy and Jimmy Wong

Genres:
 Action | Romance | Sci-Fi 

Country:
USA 

Language:
English


Storyline
The story is about a down on his luck, young aspiring gamer. He has no friends. His cat hates him. His name is Brian. He loves playing video games. One day during a public match the number one gamer the "Law" arrives to do a little bit of showing off. Out of no where Brian manages to kill the "Law". It's like the shot heard around the world. Because of it and all the hype Brian gets invited to Video Game High School. It's about a kid and all the troubles of high school but in a very different way. It's a competitive gaming school. While attending VGHS Brian tries to make it to his dream of playing at the highest level of gaming. Along the way he develops a crush on Jenny Matrix, the JV FPS Captain.

 
http://www.shotpix.com/images/77405201763505486602.png
 
http://www.shotpix.com/images/94177730542725444928.png
 
http://www.shotpix.com/images/76841715412915700254.png